<svg xmlns="http://www.w3.org/2000/svg" viewBox="0 0 1536 1024"><path d="M656.5952 0c-33.856 0.1792-66.8352 7.968-95.9424 27.648-62.3744 42.176-90.6624 127.0528-140.832 186.688-46.4384 55.2192-106.4512 80.896-166.272 111.3088-49.9008 25.3632-71.168 85.472-79.7504 144.4224-6.7712 46.5216-9.536 95.4112-30.048 136.384-23.552 47.0528-66.912 76.4096-97.44 117.9328-50.1632 68.2688-60.7808 170.912-25.9264 250.5664 7.4624 17.056 17.5232 33.8048 32.6208 42.0544 12.352 6.7392 26.56 6.9952 40.2752 6.9952h0.7488l1248.4608-0.1408c13.8048 0 28.3136-0.2048 40.3264-7.9552 19.5712-12.6016 26.1568-40.4032 38.6816-61.6448 24.8064-42.0608 73.9008-58.9184 98.6624-101.0048 11.0848-18.8352 15.8208-39.9424 15.84-61.728v-0.3712c-0.0576-34.6496-12.0192-70.9888-29.3888-102.5536a274.1888 274.1888 0 0 0-18.5088-29.1584c-39.5648-54.3552-91.8144-99.2-115.7696-164.3136-32-86.9696-5.9328-189.7024-33.1584-278.7584-19.168-62.7264-65.5488-113.856-121.2544-133.6704-48.8128-17.3632-99.9808-11.2384-151.4624-5.12-34.3424 4.0832-68.832 8.16-102.848 5.2672-69.344-5.888-133.9008-40.416-200.5184-63.136C729.696 8.32 693.9328 0.1792 659.0208 0h-2.4256z" fill="#F7F8F9" ></path><path d="M497.2288 207.552h649.6704c9.1008 0 13.6512 4.544 13.6512 13.6512v564.3392c0 9.1008-4.5504 13.6512-13.6512 13.6512H497.2288c-9.1008 0-13.6512-4.5504-13.6512-13.6512V221.2032c0-9.1008 4.544-13.6512 13.6512-13.6512z" fill="#F2F2F2" ></path><path d="M497.2288 207.552h649.6704a13.632 13.632 0 0 1 12.6144 8.4288c0.6848 1.6512 1.0368 3.4304 1.0368 5.2224v32.512H483.5776v-32.512a13.6512 13.6512 0 0 1 13.6512-13.6512z" fill="#C5CFD6" ></path><path d="M499.0016 231.4432a6.816 6.816 0 1 0 13.6512 0 6.8288 6.8288 0 1 0-13.6512 0zM519.3984 231.4432a6.8224 6.8224 0 1 0 13.6512 0 6.8224 6.8224 0 0 0-13.6512 0zM539.9744 231.4432a6.8224 6.8224 0 1 0 13.6512 0 6.8288 6.8288 0 1 0-13.6512 0z" fill="#F2F2F2" ></path><path d="M517.7792 280.9344h600.7424c4.5504 0 6.8288 2.2784 6.8288 6.8288v470.6496c0 4.5504-2.2784 6.8224-6.8288 6.8224H517.7792c-4.5568 0-6.8288-2.272-6.8288-6.8224V287.7632c0-4.5504 2.2784-6.8288 6.8288-6.8288z" fill="#FFFFFF" ></path><path d="M603.552 584.9984c0 3.9104 23.328 7.6672 64.864 10.432 41.536 2.7712 97.8624 4.3264 156.6016 4.3264s115.072-1.5552 156.6016-4.32c41.536-2.7712 64.8704-6.528 64.8704-10.4384 0-3.9168-23.3344-7.6736-64.8704-10.4384-41.5296-2.7712-97.8624-4.3264-156.6016-4.3264s-115.0656 1.5552-156.6016 4.3264c-41.536 2.7648-64.864 6.5216-64.864 10.432z" fill="#F2F2F2" ></path><path d="M816.544 423.3856c-36.0896 0-61.9968 23.3088-61.9968 77.696 0 61.6448 25.9072 77.9584 61.9968 77.9584 36.0832 0 63.5328-17.8752 63.5328-77.9584 0-64.2304-27.4496-77.696-63.5328-77.696z m0.2368 135.1936c-24.9984 0-38.0544-14.7648-38.0544-57.4592 0-37.6704 13.6-57.536 38.5856-57.536 24.992 0 38.5856 13.0496 38.5856 57.536 0 41.6192-14.1248 57.4592-39.1168 57.4592zM732.9664 536.0448h-14.912v-44.2304a8.832 8.832 0 0 0-8.8064-8.864h-3.488c-2.336 0-4.576 0.928-6.2272 2.592a8.896 8.896 0 0 0-2.5728 6.272v44.224h-42.0864a5.0176 5.0176 0 0 1-5.0176-4.9088 5.088 5.088 0 0 1 0.576-2.5024l44.544-84.8832a8.9408 8.9408 0 0 0-1.1968-10.0096 8.8448 8.8448 0 0 0-2.8288-2.1376l-2.6304-1.2544a8.768 8.768 0 0 0-11.5136 3.84l-54.3232 102.3168a12.0704 12.0704 0 0 0 5.952 16.7616c1.4528 0.6016 3.008 0.9152 4.576 0.9152h63.9488v27.968a10.656 10.656 0 0 0 6.5024 9.8112 10.5344 10.5344 0 0 0 14.592-9.8112v-27.968h14.912c4.9728 0 9.0048-4.0576 9.0048-9.0624 0-5.0112-4.032-9.0688-9.0048-9.0688z m276.256 0h-14.9184v-44.2304a8.832 8.832 0 0 0-8.7936-8.864h-3.5008c-2.3296 0-4.5696 0.928-6.2144 2.592a8.896 8.896 0 0 0-2.5792 6.272v44.224h-42.08a5.0112 5.0112 0 0 1-5.024-4.9088 5.0176 5.0176 0 0 1 0.5824-2.5024l44.5376-84.8832a8.9408 8.9408 0 0 0-1.1968-10.0096 8.7744 8.7744 0 0 0-2.8288-2.1376l-2.624-1.2544a8.768 8.768 0 0 0-11.52 3.84l-54.3232 102.3168c-0.9216 1.7408-1.408 3.6864-1.408 5.664 0 6.6368 5.3504 12.0128 11.9296 12.0128h63.9552v27.968c0 5.8624 4.7232 10.624 10.5408 10.624a10.56 10.56 0 0 0 9.7536-6.5664 10.496 10.496 0 0 0 0.7936-4.0576v-27.968h14.9248c4.9664 0 8.9984-4.0576 8.9984-9.0624 0-5.0112-4.032-9.0688-8.9984-9.0688h-0.0064z" fill="#AFB9C5" ></path><path d="M971.1296 418.0416a8.6912 8.6912 0 0 0 9.7472-2.7008 8.832 8.832 0 0 0-3.3024-13.6448 8.7104 8.7104 0 0 0-5.2864-0.5312l0.2176 4.5312-2.1312-3.8848a8.7488 8.7488 0 0 0-4.9792 7.3408 8.7808 8.7808 0 0 0 5.7344 8.8832z m36.3968 25.5296a8.704 8.704 0 0 1 6.2912-5.5744l0.7168 4.3008 1.3376-4.5248a8.7552 8.7552 0 0 1 8.2304 6.24 8.8128 8.8128 0 0 1-8.5952 11.3472 8.704 8.704 0 0 1-5.1072-1.8304 8.8576 8.8576 0 0 1-2.8736-9.9584z m10.0416 67.904c0.7168 4.096 4.1792 7.1296 8.3072 7.2704a8.7488 8.7488 0 0 0 8.7744-6.688 8.832 8.832 0 0 0-4.6912-10.0224 8.6784 8.6784 0 0 0-10.7008 2.56l3.8912 5.888-5.3248-3.1232a8.8 8.8 0 0 0-0.256 4.1152z m-421.7408 49.088c2.2976 0.8384 4.864 0.1344 6.4064-1.7664a5.8112 5.8112 0 0 0-2.1632-8.9664 5.7216 5.7216 0 0 0-3.4688-0.352l0.1408 2.976-1.4016-2.5472a5.7408 5.7408 0 0 0-3.2768 4.8192 5.7792 5.7792 0 0 0 3.7632 5.8432z m12.1792-26.1952a5.7408 5.7408 0 0 1 4.1344-3.6736l0.4736 2.8352 0.8768-2.976c2.496 0.0384 4.6784 1.696 5.4016 4.096a5.8048 5.8048 0 0 1-2.2272 6.4448 5.7088 5.7088 0 0 1-6.7712-0.192 5.7984 5.7984 0 0 1-1.888-6.5408z m7.808 37.6128a5.7216 5.7216 0 0 0 7.0912-2.8544 5.8048 5.8048 0 0 0-2.016-7.424l-0.672 2.2784-0.48-2.8608h-0.0128a5.7088 5.7088 0 0 0-7.36 3.456 5.8048 5.8048 0 0 0 3.4432 7.4112v-0.0064z" fill="#89C5CC" ></path><path d="M792.6976 487.68c0 1.2224 0.1856 2.432 0.544 3.5584 0.3584 1.1328 0.8896 2.1568 1.5488 3.0208 0.6656 0.864 1.4528 1.5488 2.3168 2.016 0.864 0.4672 1.792 0.704 2.7328 0.704a5.76 5.76 0 0 0 2.7328-0.704c0.864-0.4672 1.6512-1.152 2.3168-2.016 0.6592-0.864 1.1904-1.888 1.5488-3.0208 0.3584-1.1264 0.5376-2.336 0.5376-3.5584 0-1.216-0.1792-2.432-0.5376-3.5584a9.9392 9.9392 0 0 0-1.5488-3.0144 7.4048 7.4048 0 0 0-2.3168-2.0224 5.76 5.76 0 0 0-2.7328-0.704 5.7216 5.7216 0 0 0-2.7328 0.704c-0.864 0.4736-1.6512 1.152-2.3168 2.0224a9.9392 9.9392 0 0 0-1.5488 3.0144 11.8016 11.8016 0 0 0-0.544 3.5584zM831.6224 487.8912c0 2.4704 0.7552 4.832 2.0928 6.5792 1.3376 1.7408 3.1552 2.72 5.0496 2.72 1.8944 0 3.712-0.9792 5.0496-2.72 1.3376-1.7472 2.0928-4.1088 2.0928-6.5792 0-2.464-0.7552-4.832-2.0928-6.5792-1.3376-1.7408-3.1552-2.72-5.0496-2.72-1.8944 0-3.712 0.9792-5.0496 2.72a10.8992 10.8992 0 0 0-2.0928 6.5792zM833.3504 515.3728c0 4.1984-5.824 7.6096-13.0112 7.6096-7.1872 0-13.0112-3.4112-13.0112-7.616 0-3.6352 4.3648-6.6752 10.208-7.424a21.152 21.152 0 0 1 7.4752 0.3264c4.8768 1.088 8.3392 3.872 8.3392 7.104z" fill="#AFB9C5" ></path><path d="M825.1584 508.9024a2.0992 2.0992 0 0 1-0.5568 1.44 1.856 1.856 0 0 1-1.3376 0.5888h-4.1984a1.9648 1.9648 0 0 1-1.888-2.0288c0-0.4096 0.1152-0.8128 0.3392-1.152 0.9344-0.1344 1.8752-0.2048 2.8096-0.192 1.5744-0.0128 3.1424 0.1664 4.6656 0.5376 0.1024 0.256 0.16 0.5248 0.16 0.8064h0.0064zM795.9232 483.0336a5.6832 5.6832 0 1 0 11.3664 0 5.6832 5.6832 0 0 0-11.3664 0zM834.9504 483.0336a5.7024 5.7024 0 0 0 5.6896 5.6896 5.6704 5.6704 0 0 0 5.6896-5.6896 5.6832 5.6832 0 0 0-11.3792 0z" fill="#FFFFFF" ></path><path d="M837.0496 502.8992a5.7088 5.7088 0 0 0 5.6896 5.6896 5.6704 5.6704 0 0 0 5.6896-5.6896 5.6832 5.6832 0 0 0-11.3792 0zM785.7984 502.8992a5.6832 5.6832 0 1 0 11.3728 0 5.6832 5.6832 0 0 0-11.3728 0z" fill="#D1E2F5" ></path><path d="M484.3072 536.0448c-6.3616-7.3984-10.6688-16.4672-9.952-26.624 2.08-29.2672 43.2-22.8224 51.2-8.0512s7.04 52.2368-3.2896 54.8736c-4.128 1.056-12.9088-1.5232-21.8496-6.8608l5.6128 39.3216H472.896l11.4048-52.6592z" fill="#FECAC3" ></path><path d="M510.7968 503.5072c-4.4928 2.496-7.6992 7.168-11.552 13.2864a8.3392 8.3392 0 0 0-8.864 1.8176 8.1408 8.1408 0 0 0 0.0576 11.6928c-1.92 2.6752-4.0704 5.4784-6.528 8.3584-9.1904-5.4528-16.0192-21.3632-7.2448-36.7168 7.5392-30.7648 50.2912-11.6736 58.5216-16.864 1.792 11.168-4 20.1664-24.3904 18.432z" fill="#191847" ></path><path d="M459.2768 696.0832l49.4976 172.6144 36.1216 127.232h26.336l-38.3744-299.8464H459.2768z" fill="#5C648C" ></path><path d="M446.0544 696.0832c-1.1456 88.9664-5.056 137.4912-6.2528 145.5808-1.1968 8.0768-19.3728 59.5008-54.528 154.2656h27.2832c44.7552-90.912 69.7344-142.336 74.944-154.2656 5.216-11.936 21.2992-60.4672 45.5168-145.5808H446.0608z" fill="#7780AA" ></path><path d="M382.7776 1020.4928l1.3632-28.4928h28.672c13.5936 9.4976 31.3472 17.1776 53.248 23.0656v5.4272h-51.8848l-17.7472-2.7136v2.7136h-13.6512z m158.3744 0L542.528 992h28.672c13.5936 9.4976 31.3408 17.1776 53.248 23.0656v5.4272h-51.8848l-17.7472-2.7136v2.7136h-13.6576z" fill="#191847" ></path><path d="M576.096 671.7952l51.776-9.6704c10.3488-7.8784 19.872-13.2224 28.5696-16.0064 2.4448-0.096 6.3424 1.12 0.5376 7.7376-5.7984 6.6176-11.68 13.9392-10.6496 17.472 1.0368 3.5328 6.432 2.2208 7.3216 7.6544 0.6016 3.6224-8.1536 4.2112-26.2592 1.76l-42.0032 22.8032-9.2928-31.744v-0.0064z m-162.6176 16.4032l28.7168 0.1472c-31.488 96.992-47.904 147.7696-49.2544 152.3456-3.0272 10.2912 3.392 25.9648 6.1376 34.3872-8.9472 5.4784-7.9872-14.8096-19.264-7.6224-10.304 6.56-18.1312 18.4384-30.0288 8.3904-1.4656-1.2352-3.072-5.888 0.8064-9.5232 9.6448-9.0496 23.552-24.9024 25.4272-30.1184 2.56-7.1104 15.0464-56.448 37.4592-148.0064z" fill="#FECAC3" ></path><path d="M492.096 563.552l22.4768 2.048c5.536 68.5632 35.6928 111.872 103.2064 97.2096l8.9664 88.3008c-63.104 11.1616-118.4384-23.4176-129.7856-117.0624-2.9312-24.2368-5.2544-49.472-4.864-70.496z" fill="#B7CDE6" ></path><path d="M481.0496 554.5984l34.0608 10.6816c0 80.192 18.656 131.3536 28.224 190.3232H451.36a1421.376 1421.376 0 0 0-2.5024 62.8224H379.968c15.616-113.6832 48.5504-201.632 98.8288-263.8528h2.2272l0.0192 0.0256z" fill="#D1E2F5" ></path><path d="M465.8624 641.1904c-2.368 49.9712-0.9728 88.1088 4.1856 114.4064h-18.7008c2.5728-40.3584 7.104-78.4896 14.5152-114.4064z" fill="#B7CDE6" ></path><path d="M1074.976 622.5088c19.424-1.0048 43.4368 10.3296 45.504 31.4368 1.504 15.328 1.0368 30.624 3.3728 45.9392 1.856 12.2368 5.7984 23.9808 11.168 35.1296 5.1648 10.72 15.872 19.8464 18.6624 31.2896 1.7792 7.3024 0.7872 17.568-1.664 24.704-2.976 8.6784-1.3952 7.9936 4.5376 15.2768 11.6352 14.2656 22.1056 28.896 29.5104 45.9392 10.6688 24.5504 17.664 53.248 13.7024 80.1152-0.5056 3.4176-1.1072 15.6608-5.8048 16.512-5.2416 0.9536-2.784-6.048-2.5088-8.3072 1.7792-14.4384 3.3664-27.0464 1.216-41.7088-8.3072-56.5632-48.8896-93.8304-75.3088-141.8368-1.4528-2.4768-4.5184-8.3712-6.656-12.256-3.3536-6.144-6.7456-17.824-11.3024-22.3808-8.576-8.576-0.6848 8.6656 0.9856 11.9552 2.112 4.1664 4.4352 8.5888 6.5984 12.2368 9.9136 16.9152 20.9792 35.3792 31.2192 52.8128-44.2752 10.0928-75.4624-43.1488-87.3408-78.1376-9.792-28.8384-21.504-96.256 24.1088-98.72z" fill="#C5CFD6" ></path><path d="M1335.2832 568.96c-32.4544 2.5792-53.2928 24-62.9952 53.952-5.2288 16.1536-5.8304 32.736-8.7296 49.3312-4.3776 24.9536-13.7792 43.872-32.1536 61.6512-5.6896 5.5104-9.888 11.1616-12.8704 17.216-5.9136 6.0416-11.0656 12.8768-14.8544 21.2288-4.8384 10.6752-6.2016 23.4816-0.6208 34.1184 1.4976 2.8608 5.2416 8.608 9.1264 11.2128-14.5344 30.9504-22.528 64.8448-21.6128 98.6944 0.5376 20.4288 1.536 40.8768 2.7008 61.2864 0.3136 5.4784 2.0928 14.528 4.7744 5.3376 2.4512-8.4096-0.6208-21.6064-0.9088-30.3808-1.3824-42.784-2.5728-81.6832 15.04-121.6512 1.8496-4.192 3.808-8.3456 5.8432-12.4736 0.1216-0.064 0.2304-0.1536 0.3456-0.2304l0.224 0.1792c0.1344-0.224 0.3136-0.512 0.5184-0.8192 0.5888-0.6016 1.1008-1.3632 1.5808-2.2144 1.568-2.1632 3.3344-4.7104 3.3408-6.0992v-0.0384c10.8992-17.7984 23.3792-34.6176 36.1408-51.104-0.096 0.1216 13.8368-18.8416 11.68-8.352-1.0432 5.056-11.2896 14.6752-15.424 20.032-9.1584 11.9168-19.9104 27.008-28.8384 41.6-1.1968 0.6912-2.9056 4.0832-4.128 6.6112-0.6848 1.28-1.3056 2.5728-1.9328 3.6992 31.6544 10.4512 56.2816-10.6112 73.0688-35.1168l0.0576-0.0832c5.1072-6.7712 10.3424-13.4912 16.8832-18.848 10.9056-8.928 22.592-10.5088 35.4496-14.9056 35.0784-11.9808 49.9968-57.44 54.7328-91.1744 5.344-38.0544-20.7936-96.4032-66.4384-92.6528z" fill="#DDE3E9" ></path><path d="M1271.0912 462.4c-33.3056 34.6688-49.4016 82.7648-62.1504 127.9744-14.2336 50.4896-23.6288 101.7728-23.9936 154.272-0.2304 34.4896-1.1712 69.1968 0.8448 103.648a367.488 367.488 0 0 0 3.8656 36.5952c0.1664 0.9984 4.4992 28.0192 8.6528 21.7216 2.3616-3.584-4.448-28.032-4.96-32.1088-2.8992-22.9376-3.5648-46.048-3.424-69.1584 0.224-38.0416-0.896-75.8912 2.9632-113.7984 0.576-5.6576 1.0304-11.6096 2.3744-17.1456 1.4272-5.8816-0.3968-3.3152 4.256-5.6384 4.5184-2.2656 10.0992-1.9456 14.7904-4.7872 18.592-11.2768 28.1088-40.2304 35.5008-59.232 8.4736-21.7344 13.6128-44.896 17.728-67.7632 3.0144-16.8 5.1776-33.4976 6.3936-50.5216 0.384-5.3568 0.4096-10.9696 1.4592-16.2432 0.288-1.4208 1.7088-3.936 1.6576-5.1968-0.1088-2.6624-1.7152-4.2304-1.8496-6.4768-1.3952 1.2544-2.7648 2.5472-4.1024 3.8592" fill="#DDE3E9" ></path><path d="M1089.5232 915.2c0 57.344 46.4832 103.8208 103.8272 103.8208 57.3376 0 103.8208-46.4768 103.8208-103.8208h-207.648z" fill="#89C5CC" ></path><path d="M1201.6576 924.6784h-5.4848c0.384-6.88 0.8832-13.7536 2.0416-20.5568 4.3968-26.0352 18.1568-64.2624 48.3328-68.4928 1.12-0.16 5.216-0.1792 10.176 0.1088a18.368 18.368 0 0 1 7.7568-2.2912c25.696-1.8944 54.3872 18.8352 66.7904 40.4096 9.9904 17.3952 8.3072 40.2304 2.1312 58.7072-4.128 12.3712-13.152 30.016-28.192 30.1888-18.8224 0.2112-19.7248-23.04-20.0896-36.6464-0.48-18.08-2.7712-33.824-17.0112-46.144-3.3216-2.8672-6.9504-5.3952-10.304-8.2304-5.2544-4.4288-11.0528-8.9664-11.7248-16.2944-0.9408-10.112 4.768-11.9296 13.4784-10.0544 1.4912 0.3264 16.4608 7.0336 14.24 1.728-0.6784-1.6192-3.1424-2.9056-6.2592-3.8656-8.0768-0.8768-17.696-1.8944-20.4672-1.2864-29.8624 6.5472-41.4848 47.9104-44.5696 74.1888-0.3392 2.8352-0.6016 5.6896-0.8448 8.5312z" fill="#C5CFD6" ></path></svg>